<svg width="20" height="16" viewBox="0 0 20 16" fill="none" xmlns="http://www.w3.org/2000/svg">
<path d="M10 2C7.53125 2 5.47813 3.79062 5.07188 6.14687C5.3625 6.05312 5.675 6 6 6H6.5C7.32812 6 8 6.67188 8 7.5V10.5C8 11.3281 7.32812 12 6.5 12H6C4.34375 12 3 10.6562 3 9V7C3 3.13438 6.13438 0 10 0C13.8656 0 17 3.13438 17 7V12.2531C17 14.325 15.3188 16.0031 13.2469 16.0031L10.5 16H9.5C8.67188 16 8 15.3281 8 14.5C8 13.6719 8.67188 13 9.5 13H10.5C11.3281 13 12 13.6719 12 14.5H13.25C14.4937 14.5 15.5 13.4937 15.5 12.25V11.5969C15.0594 11.8531 14.5469 11.9969 14 11.9969H13.5C12.6719 11.9969 12 11.325 12 10.4969V7.49687C12 6.66875 12.6719 5.99687 13.5 5.99687H14C14.325 5.99687 14.6344 6.04688 14.9281 6.14375C14.5219 3.79063 12.4719 1.99688 10 1.99688V2Z" fill="#16A34A"/>
</svg>
